<svg width="301" height="230" viewBox="0 0 301 230" fill="none" xmlns="http://www.w3.org/2000/svg">
<g filter="url(#filter0_f_1_12838)">
<ellipse cx="147.735" cy="186.812" rx="110.607" ry="21.3375" fill="#1F88F8" fill-opacity="0.35"/>
</g>
<path d="M148.95 229.402C212.298 229.402 263.651 178.049 263.651 114.701C263.651 51.3534 212.298 0 148.95 0C85.6024 0 34.249 51.3534 34.249 114.701C34.249 178.049 85.6024 229.402 148.95 229.402Z" fill="url(#paint0_linear_1_12838)"/>
<g filter="url(#filter1_d_1_12838)">
<path d="M245.031 77.624L146.74 146.219L48.4497 77.624L138.427 14.8054C140.867 13.1047 143.77 12.1929 146.745 12.1929C149.719 12.1929 152.622 13.1047 155.062 14.8054L173.01 27.3528L177.709 30.6161L225.027 63.657L230.012 67.1569L245.031 77.624Z" fill="url(#paint1_linear_1_12838)"/>
</g>
<path d="M130.758 135.066L48.4497 193.594V77.624L130.758 135.066Z" fill="url(#paint2_linear_1_12838)"/>
<path d="M162.73 135.066L245.039 193.594V77.624L162.73 135.066Z" fill="url(#paint3_linear_1_12838)"/>
<path d="M48.4497 193.594L138.321 129.698C140.781 127.947 143.725 127.006 146.745 127.006C149.764 127.006 152.708 127.947 155.168 129.698L245.031 193.594H48.4497Z" fill="url(#paint4_linear_1_12838)"/>
<g filter="url(#filter2_d_1_12838)">
<path d="M58.8351 56.6099C43.7665 63.6586 27.5741 67.9977 11 69.4281C13.2395 74.634 29.1518 100.693 76.3877 122.165C77.6646 122.361 107.161 108.639 123.349 99.2293C122.799 100.015 73.0678 81.7159 58.8351 56.6099Z" fill="url(#paint5_linear_1_12838)"/>
</g>
<path d="M60.0012 69.566C59.3078 69.0849 58.4296 68.955 57.6265 69.2148L31.2626 77.7443C30.3181 78.0499 29.9816 79.2131 30.6171 79.9757C31.1288 80.5898 31.9664 80.8243 32.7226 80.5653L59.7593 71.3048C60.5222 71.0435 60.6638 70.0257 60.0012 69.566Z" fill="#C9DFFF"/>
<path d="M59.5441 80.0712C58.8755 79.4433 57.9157 79.2341 57.0463 79.5266L38.7949 85.6691C37.9901 85.9399 37.706 86.9329 38.2456 87.5885C38.6865 88.1241 39.4131 88.3306 40.0698 88.107L59.2163 81.5879C59.8627 81.3678 60.0419 80.5385 59.5441 80.0712Z" fill="#C9DFFF"/>
<path d="M69.3403 85.2731C68.6426 84.7143 67.704 84.5596 66.8638 84.865L45.8405 92.5059C45.0153 92.8058 44.767 93.8526 45.3695 94.4911C45.8305 94.9797 46.5382 95.1464 47.1688 94.915L69.0789 86.8748C69.76 86.6248 69.9066 85.7266 69.3403 85.2731Z" fill="#C9DFFF"/>
<path d="M76.6902 101.044C76.0439 100.33 75.0253 100.086 74.1253 100.429L62.1104 105.014C61.3727 105.296 61.1067 106.203 61.5757 106.838C62.0153 107.434 62.7989 107.661 63.4889 107.394L76.3671 102.406C76.9225 102.191 77.0898 101.486 76.6902 101.044Z" fill="#C9DFFF"/>
<g filter="url(#filter3_d_1_12838)">
<path d="M233.019 92.9507C251.291 101.498 270.925 106.759 291.022 108.494C288.307 114.806 269.012 146.404 211.736 172.44C210.188 172.678 174.421 156.039 154.793 144.629C155.46 145.582 215.762 123.393 233.019 92.9507Z" fill="url(#paint6_linear_1_12838)"/>
</g>
<path d="M231.606 108.661C232.447 108.078 233.512 107.92 234.485 108.235L266.453 118.578C267.598 118.948 268.006 120.359 267.236 121.284C266.615 122.028 265.6 122.313 264.683 121.998L231.899 110.77C230.974 110.453 230.803 109.219 231.606 108.661Z" fill="#C9DFFF"/>
<path d="M222.655 117.175C223.466 116.413 224.63 116.16 225.684 116.514L247.815 123.962C248.791 124.291 249.135 125.495 248.481 126.29C247.946 126.939 247.065 127.19 246.269 126.919L223.053 119.014C222.269 118.747 222.052 117.741 222.655 117.175Z" fill="#C9DFFF"/>
<path d="M213.457 124.242C214.303 123.564 215.441 123.377 216.46 123.747L241.952 133.012C242.952 133.376 243.254 134.645 242.523 135.419C241.964 136.012 241.106 136.214 240.341 135.933L213.774 126.184C212.948 125.881 212.77 124.792 213.457 124.242Z" fill="#C9DFFF"/>
<path d="M192.759 138.382C193.543 137.516 194.778 137.219 195.869 137.636L210.438 143.195C211.333 143.537 211.655 144.637 211.086 145.407C210.553 146.129 209.603 146.405 208.767 146.081L193.151 140.033C192.478 139.772 192.275 138.917 192.759 138.382Z" fill="#C9DFFF"/>
<path d="M202.269 130.831C203.131 130.29 204.195 130.178 205.151 130.527L238.72 142.801C239.792 143.193 240.052 144.592 239.192 145.343C238.623 145.84 237.828 145.987 237.119 145.726L202.492 132.97C201.558 132.626 201.426 131.359 202.269 130.831Z" fill="#C9DFFF"/>
<path d="M83.9612 88.7204C83.25 88.2742 82.3725 88.1819 81.584 88.4702L53.9004 98.5922C53.0156 98.9157 52.8012 100.069 53.5108 100.689C53.9801 101.099 54.6357 101.22 55.2204 101.005L83.7777 90.4847C84.5478 90.201 84.6565 89.1565 83.9612 88.7204Z" fill="#C9DFFF"/>
<path d="M243.971 26.9985C243.971 29.644 241.826 31.7886 239.181 31.7886C236.535 31.7886 234.391 29.644 234.391 26.9985C234.391 24.3531 236.535 22.2085 239.181 22.2085C241.826 22.2085 243.971 24.3531 243.971 26.9985Z" stroke="url(#paint7_linear_1_12838)" stroke-width="2.61276"/>
<circle cx="69.3518" cy="204.666" r="4.79006" stroke="url(#paint8_linear_1_12838)" stroke-width="2.61276"/>
<circle cx="216.537" cy="214.246" r="4.79006" stroke="url(#paint9_linear_1_12838)" stroke-width="2.61276"/>
<path d="M85.609 31.932C86.1239 29.799 89.1578 29.799 89.6727 31.932L91.4056 39.1108C91.5896 39.8731 92.1848 40.4682 92.947 40.6522L100.126 42.3851C102.259 42.9 102.259 45.9339 100.126 46.4488L92.947 48.1817C92.1848 48.3657 91.5896 48.9609 91.4056 49.7231L89.6727 56.9019C89.1578 59.0349 86.1239 59.0349 85.609 56.9019L83.8761 49.7231C83.6921 48.9609 83.0969 48.3657 82.3347 48.1817L75.1559 46.4488C73.0229 45.9339 73.0229 42.9 75.1559 42.3851L82.3347 40.6522C83.0969 40.4682 83.6921 39.8731 83.8761 39.1108L85.609 31.932Z" fill="url(#paint10_linear_1_12838)"/>
<path d="M260.119 183.417C260.634 181.284 263.668 181.284 264.183 183.417L265.916 190.596C266.1 191.358 266.695 191.953 267.457 192.137L274.636 193.87C276.769 194.385 276.769 197.419 274.636 197.934L267.457 199.667C266.695 199.851 266.1 200.446 265.916 201.208L264.183 208.387C263.668 210.52 260.634 210.52 260.119 208.387L258.386 201.208C258.202 200.446 257.607 199.851 256.845 199.667L249.666 197.934C247.533 197.419 247.533 194.385 249.666 193.87L256.845 192.137C257.607 191.953 258.202 191.358 258.386 190.596L260.119 183.417Z" fill="url(#paint11_linear_1_12838)"/>
<path d="M37.4827 166.614C38.8067 166.402 39.8637 167.703 39.3854 168.956L36.1563 177.411C35.6779 178.664 34.0229 178.929 33.1773 177.888L27.4694 170.864C26.6238 169.823 27.2217 168.258 28.5457 168.046L37.4827 166.614Z" fill="url(#paint12_linear_1_12838)"/>
<path d="M263.578 80.4219C263.246 79.1226 264.446 77.9519 265.737 78.3147L274.45 80.7633C275.741 81.126 276.155 82.7502 275.196 83.6867L268.718 90.0084C267.759 90.9449 266.145 90.4915 265.814 89.1922L263.578 80.4219Z" fill="url(#paint13_linear_1_12838)"/>
<defs>
<filter id="filter0_f_1_12838" x="15.3549" y="143.702" width="264.76" height="86.221" filterUnits="userSpaceOnUse" color-interpolation-filters="sRGB">
<feFlood flood-opacity="0" result="BackgroundImageFix"/>
<feBlend mode="normal" in="SourceGraphic" in2="BackgroundImageFix" result="shape"/>
<feGaussianBlur stdDeviation="10.8865" result="effect1_foregroundBlur_1_12838"/>
</filter>
<filter id="filter1_d_1_12838" x="44.966" y="12.1929" width="203.549" height="140.993" filterUnits="userSpaceOnUse" color-interpolation-filters="sRGB">
<feFlood flood-opacity="0" result="BackgroundImageFix"/>
<feColorMatrix in="SourceAlpha" type="matrix" values="0 0 0 0 0 0 0 0 0 0 0 0 0 0 0 0 0 0 127 0" result="hardAlpha"/>
<feOffset dy="3.48368"/>
<feGaussianBlur stdDeviation="1.74184"/>
<feComposite in2="hardAlpha" operator="out"/>
<feColorMatrix type="matrix" values="0 0 0 0 0 0 0 0 0 0 0 0 0 0 0 0 0 0 0.25 0"/>
<feBlend mode="normal" in2="BackgroundImageFix" result="effect1_dropShadow_1_12838"/>
<feBlend mode="normal" in="SourceGraphic" in2="effect1_dropShadow_1_12838" result="shape"/>
</filter>
<filter id="filter2_d_1_12838" x="0.548963" y="49.6425" width="133.251" height="86.459" filterUnits="userSpaceOnUse" color-interpolation-filters="sRGB">
<feFlood flood-opacity="0" result="BackgroundImageFix"/>
<feColorMatrix in="SourceAlpha" type="matrix" values="0 0 0 0 0 0 0 0 0 0 0 0 0 0 0 0 0 0 127 0" result="hardAlpha"/>
<feOffset dy="3.48368"/>
<feGaussianBlur stdDeviation="5.22552"/>
<feComposite in2="hardAlpha" operator="out"/>
<feColorMatrix type="matrix" values="0 0 0 0 0.0196078 0 0 0 0 0.168627 0 0 0 0 0.396078 0 0 0 0.15 0"/>
<feBlend mode="normal" in2="BackgroundImageFix" result="effect1_dropShadow_1_12838"/>
<feBlend mode="normal" in="SourceGraphic" in2="effect1_dropShadow_1_12838" result="shape"/>
</filter>
<filter id="filter3_d_1_12838" x="134.707" y="91.2088" width="165.841" height="109.103" filterUnits="userSpaceOnUse" color-interpolation-filters="sRGB">
<feFlood flood-opacity="0" result="BackgroundImageFix"/>
<feColorMatrix in="SourceAlpha" type="matrix" values="0 0 0 0 0 0 0 0 0 0 0 0 0 0 0 0 0 0 127 0" result="hardAlpha"/>
<feOffset dx="-5.28021" dy="13.0638"/>
<feGaussianBlur stdDeviation="7.40282"/>
<feComposite in2="hardAlpha" operator="out"/>
<feColorMatrix type="matrix" values="0 0 0 0 0.021441 0 0 0 0 0.168056 0 0 0 0 0.395833 0 0 0 0.15 0"/>
<feBlend mode="normal" in2="BackgroundImageFix" result="effect1_dropShadow_1_12838"/>
<feBlend mode="normal" in="SourceGraphic" in2="effect1_dropShadow_1_12838" result="shape"/>
</filter>
<linearGradient id="paint0_linear_1_12838" x1="148.066" y1="-37.3495" x2="150.416" y2="365.463" gradientUnits="userSpaceOnUse">
<stop stop-color="#21262D"/>
<stop offset="1" stop-color="#BCD8FF"/>
</linearGradient>
<linearGradient id="paint1_linear_1_12838" x1="146.74" y1="12.1929" x2="146.74" y2="146.219" gradientUnits="userSpaceOnUse">
<stop stop-color="#EDF4FF"/>
<stop offset="1" stop-color="#ABCCFF"/>
</linearGradient>
<linearGradient id="paint2_linear_1_12838" x1="89.6041" y1="77.624" x2="89.6041" y2="193.594" gradientUnits="userSpaceOnUse">
<stop stop-color="#ABCCFF"/>
<stop offset="1" stop-color="#70A8FF"/>
</linearGradient>
<linearGradient id="paint3_linear_1_12838" x1="203.885" y1="77.624" x2="203.885" y2="193.594" gradientUnits="userSpaceOnUse">
<stop stop-color="#ABCCFF"/>
<stop offset="1" stop-color="#70A8FF"/>
</linearGradient>
<linearGradient id="paint4_linear_1_12838" x1="146.74" y1="127.006" x2="146.74" y2="193.594" gradientUnits="userSpaceOnUse">
<stop stop-color="#70A8FF"/>
<stop offset="1" stop-color="#5597FD"/>
</linearGradient>
<linearGradient id="paint5_linear_1_12838" x1="23.1929" y1="85.7857" x2="96.7856" y2="71.4155" gradientUnits="userSpaceOnUse">
<stop stop-color="#C6DDFF"/>
<stop offset="1" stop-color="white"/>
</linearGradient>
<linearGradient id="paint6_linear_1_12838" x1="276.238" y1="128.328" x2="187.002" y2="110.903" gradientUnits="userSpaceOnUse">
<stop stop-color="#C6DDFF"/>
<stop offset="1" stop-color="white"/>
</linearGradient>
<linearGradient id="paint7_linear_1_12838" x1="231.687" y1="23.1883" x2="250.739" y2="39.6995" gradientUnits="userSpaceOnUse">
<stop stop-color="#94BFFF"/>
<stop offset="1" stop-color="#4C94FE"/>
</linearGradient>
<linearGradient id="paint8_linear_1_12838" x1="61.8583" y1="200.856" x2="80.9096" y2="217.367" gradientUnits="userSpaceOnUse">
<stop stop-color="#94BFFF"/>
<stop offset="1" stop-color="#4C94FE"/>
</linearGradient>
<linearGradient id="paint9_linear_1_12838" x1="209.044" y1="210.436" x2="228.095" y2="226.947" gradientUnits="userSpaceOnUse">
<stop stop-color="#94BFFF"/>
<stop offset="1" stop-color="#4C94FE"/>
</linearGradient>
<linearGradient id="paint10_linear_1_12838" x1="87.6408" y1="23.5149" x2="87.6408" y2="65.319" gradientUnits="userSpaceOnUse">
<stop stop-color="#70A8FF"/>
<stop offset="1" stop-color="#5597FD"/>
</linearGradient>
<linearGradient id="paint11_linear_1_12838" x1="262.151" y1="175" x2="262.151" y2="216.804" gradientUnits="userSpaceOnUse">
<stop stop-color="#70A8FF"/>
<stop offset="1" stop-color="#5597FD"/>
</linearGradient>
<linearGradient id="paint12_linear_1_12838" x1="40.4617" y1="166.137" x2="26.9439" y2="177.122" gradientUnits="userSpaceOnUse">
<stop stop-color="#70A8FF"/>
<stop offset="1" stop-color="#5597FD"/>
</linearGradient>
<linearGradient id="paint13_linear_1_12838" x1="262.832" y1="77.4985" x2="274.998" y2="89.9639" gradientUnits="userSpaceOnUse">
<stop stop-color="#70A8FF"/>
<stop offset="1" stop-color="#5597FD"/>
</linearGradient>
</defs>
</svg>
